<svg width="20" height="24" viewBox="0 0 20 24" fill="none" xmlns="http://www.w3.org/2000/svg">
<path d="M2.06061 23.4026C1.40074 23.6854 0.666687 23.2014 0.666687 22.4835V2.66667C0.666687 1.93333 0.92802 1.30533 1.45069 0.782667C1.97246 0.260889 2.60002 0 3.33335 0H16.6667C17.4 0 18.028 0.260889 18.5507 0.782667C19.0725 1.30533 19.3334 1.93333 19.3334 2.66667V22.4835C19.3334 23.2014 18.5993 23.6854 17.9394 23.4026L10 20L2.06061 23.4026Z" fill="#0072AA"/>
<path d="M2.06061 23.4026C1.40074 23.6854 0.666687 23.2014 0.666687 22.4835V2.66667C0.666687 1.93333 0.92802 1.30533 1.45069 0.782667C1.97246 0.260889 2.60002 0 3.33335 0H16.6667C17.4 0 18.028 0.260889 18.5507 0.782667C19.0725 1.30533 19.3334 1.93333 19.3334 2.66667V22.4835C19.3334 23.2014 18.5993 23.6854 17.9394 23.4026L10 20L2.06061 23.4026Z" stroke="#AFB0B1"/>
</svg>
